<?xml version="1.0" standalone="no"?>
<!DOCTYPE svg PUBLIC "-//W3C//DTD SVG 20010904//EN"
 "http://www.w3.org/TR/2001/REC-SVG-20010904/DTD/svg10.dtd">
<svg version="1.0" xmlns="http://www.w3.org/2000/svg"
 width="300" height="300" viewBox="0 0 150 200">
<metadata>
Created by potrace 1.13, written by Peter Selinger 2001-2015
</metadata>
<g transform="translate(-25,200) scale(0.100000,-0.100000)"
fill="#fff" stroke="none">
<path d="M839 1766 c-360 -76 -619 -396 -619 -765 0 -226 76 -407 237 -562
157 -152 324 -219 544 -219 224 0 420 85 570 248 151 164 217 346 206 567 -7
131 -25 203 -78 310 -96 195 -287 354 -494 410 -82 22 -282 28 -366 11z m686
-286 c-10 -11 -50 -36 -89 -56 -68 -34 -74 -35 -151 -30 l-80 6 45 -20 c75
-32 106 -27 208 35 50 30 96 55 101 55 29 0 130 -195 150 -290 31 -142 24
-323 -16 -422 l-16 -39 -36 35 c-38 37 -77 56 -115 56 -22 0 -22 2 -18 84 6
115 -16 185 -78 247 -29 28 -64 52 -95 62 -71 24 -89 20 -29 -7 122 -56 170
-133 162 -263 -7 -118 -52 -188 -148 -231 -66 -31 -148 -91 -170 -126 -30 -49
-24 -90 13 -94 16 -2 42 1 58 7 l29 10 -15 -29 c-23 -44 -94 -99 -149 -115
-60 -18 -106 -19 -191 -3 -56 11 -65 16 -65 34 0 15 -8 24 -27 29 -35 8 -73
32 -73 46 0 7 14 8 40 4 101 -17 205 53 249 169 30 82 45 185 32 233 -13 49
-55 89 -101 98 -81 15 -252 -40 -344 -110 -39 -30 -66 -88 -66 -142 0 -45 33
-116 66 -142 13 -10 24 -22 24 -25 0 -25 -84 30 -174 115 -35 32 -68 59 -73
59 -5 0 -19 32 -32 71 -17 52 -29 73 -47 81 -13 6 -24 14 -24 18 0 4 62 55
138 115 75 60 170 144 210 186 40 43 102 96 136 118 114 75 465 174 666 189
58 4 107 6 109 5 2 -2 -4 -12 -14 -23z"/>
<path d="M830 1303 c-52 -25 -200 -156 -189 -168 3 -3 42 10 86 28 74 29 84
37 132 100 28 37 46 67 39 67 -7 -1 -38 -13 -68 -27z"/>
</g>
</svg>
